<?xml version="1.0" encoding="utf-8"?>
<!-- Generator: Adobe Illustrator 27.5.0, SVG Export Plug-In . SVG Version: 6.00 Build 0)  -->
<svg version="1.1" id="Capa_1" xmlns="http://www.w3.org/2000/svg" xmlns:xlink="http://www.w3.org/1999/xlink" x="0px" y="0px"
	 viewBox="0 0 591.1 164" style="enable-background:new 0 0 591.1 164;" xml:space="preserve">
<style type="text/css">
	.st0{fill:#654128;}
	.st1{fill:#FF5900;}
	.st2{fill:#FFFFFF;}
</style>
<g>
	<path class="st0" d="M-1044.4,67c0.1,3.3,0.4,6.6,0.4,10v3.1c0,3-0.1,5.9-0.1,8.9c0,3.3-0.1,6.5-0.1,9.7c0,1.3-0.2,2.7-0.2,4
		c1.7-0.1,3.4-0.4,5.1-0.4s3.4,0.3,5.1,0.4c-0.1-5.8-0.4-11.7-0.4-17.5c0-4.9-0.4-14,6.1-14c6.1,0,5.8,7.9,5.8,12.6
		c0,1.9-0.1,3.9-0.1,5.8c-0.1,3-0.1,6-0.4,9c-0.1,1.3-0.2,2.7-0.3,4c1.6-0.1,3.2-0.4,4.8-0.4c1.9,0,3.7,0.2,5.6,0.4
		c0-4.3-0.1-8.6-0.1-12.9c0-3.2,0.1-6.3,0.1-9.5c0-4,0.2-8.2-2.3-11.4c-2.5-3-5.2-4.4-8.8-4.4c-4.4,0-8.1,2.9-10.7,6.5l0.2-5.7
		c-1.5,0.2-3.1,0.3-4.6,0.3c-1.8,0-3.5-0.2-5.2-0.3L-1044.4,67z"/>
	<path class="st0" d="M-986.9,54c0.8-0.5,1.5-1.1,2.3-1.6c0.8-1.2,1.3-1.5,1.3-3c0-0.9-0.3-1.8-0.8-2.5c-0.6-0.6-1.4-0.9-2.3-0.9
		c-0.8,0-1.8,0-2.4,0.6c-0.9,0.5-1.6,1.4-2.3,2.2l-9,11.6h3.9L-986.9,54z M-1006.7,74.6c0.2-0.3,0.6-0.6,0.8-0.9
		c2.2-2.1,4.9-3.5,7.8-3.5c3.2,0,6.6,2.7,6.6,6.4c0,1.2-0.1,2.2-0.9,3c-1.6,1.1-3.4,1.6-5.2,2c-3.1,0.9-5.8,1.4-8.7,3.3
		c-2.7,1.7-4.2,5.1-4.2,8.6c0,6.7,4.3,10.2,10.1,10.2c1.9,0,3.7-0.6,5.3-1.5c1.6-1,2.9-2.4,3.7-4c1.1,3.3,3.7,5.5,7,5.5
		c1,0,2-0.2,3-0.5c1.1-0.5,2.3-0.9,3.4-1.5v-0.8c0-2-0.1-0.5-2.4-1.3c-0.9-0.5-1.6-2.2-1.7-3.3c-0.1-1.5-0.1-3-0.1-4.4
		c0-3.8,0.2-7.5,0.2-11.4c0-1.7-0.1-3.5-0.1-5.2c-0.1-7.7-7.1-10.4-13-10.4c-4.5,0-9.7,1.9-13.1,5.2l0.9,4.7L-1006.7,74.6z
		 M-998.4,86.1c1.2-1,2.8-1.4,4.2-2c0.9-0.4,1.9-0.9,2.8-1.3c-0.1,2.5-0.1,5-0.1,7.5c0,3.9-0.9,8.2-5.2,8.2c-3,0-3.9-3-3.9-5.9
		C-1000.6,90-1000.2,87.7-998.4,86.1z"/>
	<path class="st0" d="M-965.9,44c-1.8,0.4-3.6,0.4-5.4,0.4c-1.8,0-3.5-0.1-5.2-0.4c0.4,8.5,0.6,17,0.6,25.3c0,3-0.1,6.1-0.1,9
		l-0.3,19.4c0,1.6-0.1,3.3-0.2,5c1.7-0.1,3.4-0.4,5.1-0.4s3.4,0.3,5.1,0.4c-0.1-5.8-0.4-11.7-0.4-17.5c0-5-0.4-14,6.1-14
		c2.5,0,4.7,2.1,5.3,4.7c0.3,1.8,0.5,5.9,0.5,7.9c0,2.3,0,4.6-0.1,6.8l-0.2,7.1c-0.1,1.6-0.2,3.3-0.4,5c1.7-0.1,3.5-0.4,5.2-0.4
		c1.8,0,3.5,0.2,5.3,0.4c0-1.4-0.1-2.7-0.1-4.1V78.1c0-3.8-0.3-7.1-2.9-9.9c-2.3-2.5-5-3.7-8.3-3.7c-3.8,0-8,3.1-10.4,6.1l0.1-8.4
		L-965.9,44z"/>
	<path class="st0" d="M-919,102.7c1.5-0.2,3-0.3,4.5-0.4c1.8,0,3.5,0.3,5.3,0.4l-0.1-1.5c-0.2-3.5-0.4-7-0.4-10.4v-4
		c0-4.1,0.1-8.2,0.1-12.4c0-3,0.1-5.9,0.3-8.9c-1.7,0.2-3.4,0.3-5.1,0.3s-3.4-0.2-5.1-0.3c0.1,5.8,0.4,11.7,0.4,17.5
		c0,4.9,0.3,14-6.1,14c-2.5,0-4.1-1.6-5-4c-0.7-1.6-0.8-4.7-0.8-6.5c0-7,0.1-14,0.7-21c-1.6,0.2-3.2,0.3-4.8,0.3
		c-1.9,0-3.7-0.2-5.6-0.3c0,1.4,0.1,2.7,0.1,4.1c0,5.7-0.1,11.3-0.1,17c0,3.9-0.4,8.7,1.8,12c2.1,3.3,5.9,4.8,9.5,4.8
		c4.9,0,7.4-2.5,10.6-6.4L-919,102.7z"/>
	<path class="st0" d="M-902.8,74.6c0.2-0.3,0.6-0.6,0.8-0.9c2.2-2.1,4.9-3.5,7.8-3.5c3.2,0,6.6,2.7,6.6,6.5c0,1.2-0.1,2.2-0.9,3
		c-1.6,1.1-3.4,1.6-5.2,2c-3.1,0.9-5.8,1.4-8.7,3.3c-2.7,1.7-4.2,5.1-4.2,8.6c0,6.7,4.3,10.2,10.1,10.2c1.9,0,3.7-0.6,5.3-1.5
		c1.6-1,2.9-2.4,3.7-4c1.1,3.3,3.7,5.5,7,5.5c1,0,2-0.2,3-0.5c1.1-0.5,2.3-0.9,3.4-1.5v-0.8c0-2-0.1-0.5-2.4-1.3
		c-0.9-0.5-1.6-2.2-1.7-3.3c-0.1-1.5-0.1-3-0.1-4.4c0-3.8,0.2-7.5,0.2-11.4c0-1.7-0.1-3.5-0.1-5.2c-0.1-7.7-7.1-10.4-13-10.4
		c-4.4,0-9.7,1.9-13.1,5.2l0.9,4.7L-902.8,74.6z M-894.4,86.1c1.2-1,2.8-1.4,4.2-2c0.9-0.4,1.9-0.9,2.8-1.3c-0.1,2.5-0.1,5-0.1,7.5
		c0,3.9-0.9,8.2-5.2,8.2c-3,0-3.9-3-3.9-5.9C-896.7,90-896.3,87.7-894.4,86.1z"/>
	<path class="st0" d="M-844.5,68.2c-3.3-2.4-8.1-3.6-12.1-3.6c-11.1,0-18.6,7.9-18.6,20.1c0,5.4,1.6,10,5.1,13.9
		c3.5,3.8,8.7,4.9,13.4,4.9c2.5,0,7.6-1,9.5-3l1.7-4.6l-1.2-1.1c-1.7,2.2-4.7,3.7-7.3,3.7c-3.3,0-6.2-1.1-8.2-4.3
		c-2.1-3.3-2.3-7-2.3-11c0-5.8,1.8-14.9,8.5-14.9c4.2,0,6.7,3.5,7.2,7.8h1.7L-844.5,68.2z"/>
	<path class="st0" d="M-1063.8,82.4c-2-6.3-4-12.4-6.3-18.4c-2.4,6-4.6,12.2-6.6,18.4H-1063.8z M-1045.2,102.8
		c-2.3-0.1-4.2-0.4-6.2-0.4c-2,0-4,0.2-6,0.4c-1.5-5.3-3.1-10.6-4.9-15.9c-3-0.1-6-0.2-9-0.2c-2.5,0-4.9,0.1-7.3,0.2
		c-1.9,5.2-3.5,10.5-4.8,15.9c-1.1-0.2-2.2-0.3-3.3-0.4c-1.1,0-2.2,0.2-3.5,0.4c3.4-8.6,14-36.1,20.1-53.8c0.9,0.2,1.8,0.3,2.7,0.4
		c0.9,0,1.8-0.2,2.7-0.4C-1058.8,66.6-1050.6,90.2-1045.2,102.8"/>
	<path class="st1" d="M-1158,58.5l19.2,21.8l4.2-3.6L-1154,55L-1158,58.5z M-1151.9,53.2l19.2,21.8l4.2-3.6l-19.5-21.8L-1151.9,53.2
		z M-1145.9,47.6l19.2,21.8l4.2-3.5L-1142,44L-1145.9,47.6z"/>
	<path class="st1" d="M-1162.2,98.2l19.2,21.8l4.2-3.6l-19.5-21.8L-1162.2,98.2z M-1156.2,92.9l19.2,21.8l4.2-3.5l-19.5-21.8
		L-1156.2,92.9z M-1150.2,87.2l19.2,21.8l4.2-3.6l-19.6-21.8L-1150.2,87.2z"/>
	<path class="st0" d="M-1118.8,66l-22,19.1l3.6,4.2l22-19.4L-1118.8,66z M-1113.4,71.9l-22,19.1l3.6,4.2l22-19.4L-1113.4,71.9z
		 M-1107.7,77.9l-22,19.1l3.6,4.2l22-19.4L-1107.7,77.9z"/>
	<path class="st0" d="M-1158.7,62.2l-22,19.1l3.6,4.2l22-19.4L-1158.7,62.2z M-1153.3,68.2l-22,19.1l3.6,4.2l22-19.4L-1153.3,68.2z
		 M-1147.6,74.2l-22,19.1l3.6,4.2l22-19.4L-1147.6,74.2z"/>
	<path class="st0" d="M-836.9,84.3c0-3.5,0.4-6.5,1.3-9c0.8-2.2,2-4.2,3.5-6c1.4-1.5,3-2.6,4.9-3.3c3.5-1.4,7.4-1.4,10.8,0
		c1.9,0.7,3.5,1.9,4.9,3.3c1.6,1.7,2.8,3.8,3.5,6c0.9,2.5,1.3,5.4,1.3,9c0,3.5-0.4,6.5-1.3,9c-0.8,2.2-2,4.2-3.5,6
		c-1.3,1.4-3,2.6-4.9,3.2c-3.5,1.2-7.3,1.2-10.8,0c-1.9-0.7-3.6-1.8-4.9-3.2c-1.6-1.7-2.8-3.8-3.5-6
		C-836.4,90.8-836.9,87.8-836.9,84.3z M-831.4,84.3c0,2.1,0.2,4.2,0.5,6.3c0.3,1.9,0.8,3.7,1.6,5.4c0.7,1.5,1.7,2.8,3,3.8
		c1.4,0.9,3,1.4,4.6,1.4c1.6,0,3.3-0.5,4.6-1.4c1.3-1,2.3-2.3,3-3.8c0.8-1.7,1.3-3.5,1.6-5.4c0.6-4.2,0.6-8.4,0-12.6
		c-0.3-1.9-0.8-3.7-1.6-5.4c-0.7-1.5-1.7-2.8-3-3.8c-1.4-0.9-3-1.4-4.6-1.4c-1.6,0-3.3,0.5-4.6,1.4c-1.3,1-2.3,2.3-3,3.8
		c-0.8,1.7-1.3,3.5-1.6,5.4C-831.2,80.1-831.4,82.2-831.4,84.3L-831.4,84.3z"/>
	<path class="st0" d="M-781.4,72c-1.2-2-2.9-3-5-3c-2.9,0-5.1,1.1-6.4,3.3c-1.4,2.2-2,5.4-2,9.4v6.6c0,2.3,0,4.8,0.1,7.3
		c0.1,2.6,0.2,4.9,0.4,6.9c-1.9-0.2-3.8-0.2-5.6,0c0.2-2.1,0.3-4.4,0.4-6.9c0.1-2.6,0.1-5,0.1-7.3v-8.1c0-2.3,0-4.8-0.1-7.3
		c-0.1-2.6-0.2-5-0.4-7.2c0.9,0.2,1.9,0.4,2.8,0.4c0.4,0,0.7,0,1.1-0.1l1.4-0.3c-0.1,2.1-0.2,4.1-0.2,6.2h0.1c1-2,2.4-3.8,4.2-5.2
		c1.7-1.2,3.7-1.9,5.8-1.8c1.2,0,2.4,0.2,3.5,0.6c1.2,0.4,2.3,1.2,3.2,2.1c1.1,1.2,1.9,2.6,2.3,4.1c0.6,1.7,0.9,3.9,0.9,6.6
		c0,2.2,0,4.5-0.1,6.9c-0.1,2.4-0.1,4.8-0.1,7.5v5c0,0.8,0,1.6,0,2.4c0,0.8,0.1,1.6,0.1,2.3c-0.9-0.1-1.8-0.2-2.6-0.2
		c-0.9,0-1.7,0.1-2.6,0.2c0.1-2.7,0.2-5.5,0.3-8.3c0.1-2.8,0.2-5.8,0.2-8.8v-4.7C-779.6,76.9-780.2,74-781.4,72z"/>
	<path class="st0" d="M-764.1,60.7c0-2.1-0.1-4.1-0.1-6.1c0-2-0.1-3.9-0.2-5.8c-0.1-1.8-0.1-3.4-0.2-4.7c1.8,0.5,3.8,0.5,5.6,0
		c-0.1,1.3-0.2,2.9-0.2,4.7c-0.1,1.8-0.1,3.8-0.2,5.8c0,2-0.1,4.1-0.1,6.1c0,2.1,0,4,0,5.7v14c0,1.8,0,3.7,0,5.7
		c0,2.1,0.1,4.1,0.1,6.1c0,2,0.1,3.9,0.2,5.7c0.1,1.8,0.1,3.3,0.2,4.5c-1.9-0.2-3.8-0.2-5.6,0c0.1-1.2,0.2-2.7,0.2-4.5
		c0.1-1.8,0.1-3.7,0.2-5.7c0-2,0.1-4.1,0.1-6.1c0-2.1,0-4,0-5.7v-14C-764,64.7-764,62.8-764.1,60.7z"/>
	<path class="st0" d="M-747.9,52.2c0-1,0.3-2,0.9-2.8c0.3-0.4,0.6-0.7,1-0.9c0.4-0.2,0.8-0.3,1.3-0.3c0.4,0,0.9,0.1,1.3,0.3
		c0.4,0.2,0.7,0.5,1,0.9c0.6,0.8,0.9,1.8,0.9,2.8s-0.3,2-0.9,2.8c-0.3,0.4-0.6,0.7-1,0.9c-0.4,0.2-0.8,0.3-1.3,0.3
		c-0.4,0-0.9-0.1-1.3-0.3c-0.4-0.2-0.7-0.5-1-0.9C-747.6,54.2-748,53.3-747.9,52.2z M-747.1,80.2c0-2.3,0-4.8-0.1-7.3
		c-0.1-2.6-0.2-5-0.4-7.2c1.8,0.5,3.8,0.5,5.6,0c-0.2,2.2-0.3,4.6-0.4,7.2s-0.1,5-0.1,7.3v8.1c0,2.3,0,4.8,0.1,7.3s0.2,4.9,0.4,6.9
		c-1.9-0.2-3.8-0.2-5.6,0c0.2-2.1,0.3-4.4,0.4-6.9c0.1-2.6,0.1-5,0.1-7.3V80.2z"/>
	<path class="st0" d="M-713.2,72c-1.2-2-2.9-3-5-3c-2.9,0-5.1,1.1-6.4,3.3c-1.4,2.2-2,5.4-2,9.4v6.6c0,2.3,0,4.8,0.1,7.3
		c0.1,2.6,0.2,4.9,0.4,6.9c-1.9-0.2-3.8-0.2-5.6,0c0.2-2.1,0.3-4.4,0.4-6.9c0.1-2.6,0.1-5,0.1-7.3v-8.1c0-2.3,0-4.8-0.1-7.3
		c-0.1-2.6-0.2-5-0.4-7.2c0.9,0.2,1.9,0.4,2.8,0.4c0.4,0,0.7,0,1.1-0.1l1.4-0.3c-0.1,2.1-0.2,4.1-0.2,6.2h0.1c1-2,2.4-3.8,4.2-5.2
		c1.7-1.2,3.7-1.9,5.8-1.8c1.2,0,2.4,0.2,3.5,0.6c1.2,0.4,2.3,1.2,3.2,2.1c1.1,1.2,1.9,2.6,2.3,4.1c0.6,1.7,0.9,3.9,0.9,6.6
		c0,2.2,0,4.5-0.1,6.9c-0.1,2.4-0.1,4.8-0.1,7.5v5c0,0.8,0,1.6,0,2.4c0,0.8,0.1,1.6,0.1,2.3c-0.9-0.1-1.7-0.2-2.6-0.2
		c-0.9,0-1.7,0.1-2.6,0.2c0.1-2.7,0.2-5.5,0.3-8.3c0.1-2.8,0.2-5.8,0.2-8.8v-4.7C-711.4,76.9-712,74-713.2,72z"/>
	<path class="st0" d="M-700,85.4c0-6.4,1.2-11.3,3.7-15c2.4-3.6,6-5.4,10.7-5.4c2-0.1,4,0.4,5.7,1.3c1.6,0.8,3,2,4,3.4
		c1.1,1.5,1.9,3.2,2.4,5c0.5,2,0.8,4.1,0.8,6.1c0,0.5,0,1,0,1.5c0,0.5-0.1,1-0.1,1.5l-6.7-0.2c-2.2-0.1-4.4-0.1-6.7-0.1
		c-1.4,0-2.7,0-4.1,0.1l-4.1,0.2c0,0.4-0.1,0.8-0.1,1.2v1c0,1.9,0.2,3.8,0.7,5.7c0.4,1.6,1.1,3.2,2.1,4.5c0.9,1.2,2,2.3,3.4,3
		c1.4,0.8,3,1.2,4.6,1.1c0.9,0,1.7-0.1,2.6-0.4c0.9-0.3,1.8-0.7,2.6-1.2c0.8-0.5,1.6-1.1,2.3-1.7c0.7-0.7,1.4-1.4,1.9-2.2l0.3,0.2
		l-0.4,3.8c-1.4,1.3-2.9,2.4-4.7,3.2c-1.8,0.9-3.8,1.3-5.8,1.3c-2.1,0-4.2-0.4-6.2-1.3c-1.9-0.9-3.5-2.1-4.8-3.7
		c-1.4-1.7-2.5-3.7-3.1-5.8C-699.6,90.2-700,87.8-700,85.4z M-685.5,67.4c-1.4,0-2.8,0.4-3.9,1.3c-1.1,0.9-2,2-2.6,3.3
		c-0.7,1.4-1.2,2.8-1.6,4.3c-0.3,1.5-0.6,3-0.7,4.5l4,0.2c1.4,0.1,2.8,0.1,4.1,0.1c1.4,0,2.8,0,4.2-0.1l4.1-0.2c0-1.5-0.1-3-0.3-4.4
		c-0.2-1.5-0.6-3-1.1-4.3c-0.5-1.3-1.3-2.4-2.3-3.3C-682.6,67.9-683.9,67.4-685.5,67.4z"/>
</g>
<g>
	<path d="M-433.2,67c0.1,3.3,0.4,6.6,0.4,10v3.1c0,3-0.1,5.9-0.1,8.9c0,3.3-0.1,6.5-0.1,9.7c0,1.3-0.2,2.7-0.2,4
		c1.7-0.1,3.4-0.4,5.1-0.4c1.7,0,3.4,0.3,5.1,0.4c-0.1-5.8-0.4-11.7-0.4-17.5c0-4.9-0.4-14,6.1-14c6.1,0,5.8,7.9,5.8,12.6
		c0,1.9-0.1,3.9-0.1,5.8c-0.1,3-0.1,6-0.4,9c-0.1,1.3-0.2,2.7-0.3,4c1.6-0.1,3.2-0.4,4.8-0.4c1.9,0,3.7,0.2,5.6,0.4
		c0-4.3-0.1-8.6-0.1-12.9c0-3.2,0.1-6.3,0.1-9.5c0-4,0.2-8.2-2.3-11.4c-2.5-3-5.2-4.4-8.8-4.4c-4.4,0-8,2.9-10.7,6.5l0.2-5.7
		c-1.5,0.2-3.1,0.3-4.6,0.3c-1.8,0-3.5-0.2-5.2-0.3L-433.2,67z"/>
	<path d="M-375.8,54c0.8-0.5,1.5-1.1,2.3-1.6c0.8-1.2,1.3-1.5,1.3-3c0-0.9-0.3-1.8-0.8-2.5c-0.6-0.6-1.4-0.9-2.3-0.9
		c-0.8,0-1.8,0-2.4,0.6c-0.9,0.5-1.6,1.4-2.3,2.2l-9,11.6h3.9L-375.8,54z M-395.6,74.6c0.2-0.3,0.6-0.6,0.8-0.9
		c2.2-2.1,4.9-3.5,7.8-3.5c3.2,0,6.6,2.7,6.6,6.4c0,1.2-0.1,2.2-0.9,3c-1.6,1.1-3.4,1.6-5.2,2c-3.1,0.9-5.8,1.4-8.7,3.3
		c-2.7,1.7-4.2,5.1-4.2,8.6c0,6.7,4.3,10.2,10.1,10.2c1.9,0,3.7-0.6,5.3-1.5c1.6-1,2.9-2.4,3.7-4c1.1,3.3,3.7,5.5,7,5.5
		c1,0,2-0.2,3-0.5c1.1-0.5,2.3-0.9,3.4-1.5v-0.8c0-2-0.1-0.5-2.4-1.3c-0.9-0.5-1.6-2.2-1.7-3.3c-0.1-1.5-0.1-3-0.1-4.4
		c0-3.8,0.2-7.5,0.2-11.4c0-1.7-0.1-3.5-0.1-5.2c-0.1-7.7-7.1-10.4-13-10.4c-4.4,0-9.7,1.9-13.1,5.2l0.9,4.7L-395.6,74.6z
		 M-387.2,86.1c1.2-1,2.8-1.4,4.2-2c0.9-0.4,1.9-0.9,2.8-1.3c-0.1,2.5-0.1,5-0.1,7.5c0,3.9-0.9,8.2-5.2,8.2c-3,0-3.9-3-3.9-5.9
		C-389.5,90-389.1,87.7-387.2,86.1z"/>
	<path d="M-354.7,44c-1.8,0.4-3.6,0.4-5.4,0.4c-1.8,0-3.5-0.1-5.2-0.4c0.4,8.5,0.6,17,0.6,25.3c0,3-0.1,6.1-0.1,9l-0.3,19.4
		c0,1.6-0.1,3.3-0.2,5c1.7-0.1,3.4-0.4,5.1-0.4c1.7,0,3.4,0.3,5.1,0.4c-0.1-5.8-0.4-11.7-0.4-17.5c0-5-0.4-14,6.1-14
		c2.5,0,4.7,2.1,5.3,4.7c0.4,1.8,0.5,5.9,0.5,7.9c0,2.3,0,4.6-0.1,6.8l-0.2,7.1c-0.1,1.6-0.2,3.3-0.4,5c1.7-0.1,3.5-0.4,5.2-0.4
		c1.8,0,3.5,0.2,5.3,0.4c0-1.4-0.1-2.7-0.1-4.1V78.1c0-3.8-0.3-7.1-2.9-9.9c-2.3-2.5-5-3.7-8.3-3.7c-3.8,0-8,3.1-10.4,6.1l0.1-8.4
		L-354.7,44z"/>
	<path d="M-307.8,102.7c1.5-0.2,3-0.3,4.5-0.4c1.8,0,3.5,0.3,5.3,0.4l-0.1-1.5c-0.2-3.5-0.4-7-0.4-10.4v-4c0-4.1,0.1-8.2,0.1-12.4
		c0-3,0.1-5.9,0.3-8.9c-1.7,0.2-3.4,0.3-5.1,0.3c-1.7,0-3.4-0.2-5.1-0.3c0.1,5.8,0.4,11.7,0.4,17.5c0,4.9,0.3,14-6.1,14
		c-2.5,0-4.1-1.6-5-4c-0.7-1.6-0.8-4.7-0.8-6.5c0-7,0.1-14,0.7-21c-1.6,0.2-3.2,0.3-4.8,0.3c-1.9,0-3.7-0.2-5.6-0.3
		c0,1.4,0.1,2.7,0.1,4.1c0,5.7-0.1,11.3-0.1,17c0,3.9-0.4,8.7,1.8,12c2.1,3.3,5.9,4.8,9.5,4.8c4.9,0,7.4-2.5,10.6-6.4L-307.8,102.7z
		"/>
	<path d="M-291.6,74.6c0.2-0.3,0.6-0.6,0.8-0.9c2.2-2.1,4.9-3.5,7.8-3.5c3.2,0,6.6,2.7,6.6,6.5c0,1.2-0.1,2.2-0.9,3
		c-1.6,1.1-3.4,1.6-5.2,2c-3.1,0.9-5.8,1.4-8.7,3.3c-2.7,1.7-4.2,5.1-4.2,8.6c0,6.7,4.3,10.2,10.1,10.2c1.9,0,3.7-0.6,5.3-1.5
		c1.6-1,2.9-2.4,3.7-4c1.1,3.3,3.7,5.5,7,5.5c1,0,2-0.2,3-0.5c1.1-0.5,2.3-0.9,3.4-1.5v-0.8c0-2-0.1-0.5-2.4-1.3
		c-0.9-0.5-1.6-2.2-1.7-3.3c-0.1-1.5-0.1-3-0.1-4.4c0-3.8,0.2-7.5,0.2-11.4c0-1.7-0.1-3.5-0.1-5.2c-0.1-7.7-7.1-10.4-13-10.4
		c-4.4,0-9.7,1.9-13.1,5.2l0.9,4.7L-291.6,74.6z M-283.3,86.1c1.2-1,2.8-1.4,4.2-2c0.9-0.4,1.9-0.9,2.8-1.3c-0.1,2.5-0.1,5-0.1,7.5
		c0,3.9-0.9,8.2-5.2,8.2c-3,0-3.9-3-3.9-5.9C-285.6,90-285.2,87.7-283.3,86.1z"/>
	<path d="M-233.4,68.2c-3.3-2.4-8.1-3.6-12.1-3.6c-11.1,0-18.6,7.9-18.6,20.1c0,5.4,1.6,10,5.1,13.9c3.5,3.8,8.7,4.9,13.4,4.9
		c2.5,0,7.6-1,9.5-3l1.7-4.6l-1.2-1.1c-1.7,2.2-4.7,3.7-7.3,3.7c-3.3,0-6.2-1.1-8.2-4.3c-2.1-3.3-2.3-7-2.3-11
		c0-5.8,1.8-14.9,8.5-14.9c4.2,0,6.7,3.5,7.2,7.8h1.7L-233.4,68.2z"/>
	<path d="M-452.7,82.4c-2-6.3-4-12.4-6.3-18.4c-2.4,6-4.6,12.2-6.6,18.4H-452.7z M-434.1,102.8c-2.3-0.1-4.2-0.4-6.2-0.4
		c-2,0-4,0.2-6,0.4c-1.5-5.3-3.1-10.6-4.9-15.9c-3-0.1-6-0.2-9-0.2c-2.5,0-4.9,0.1-7.3,0.2c-1.9,5.2-3.5,10.5-4.8,15.9
		c-1.1-0.2-2.2-0.3-3.3-0.4c-1.1,0-2.2,0.2-3.5,0.4c3.4-8.6,14-36.1,20.1-53.8c0.9,0.2,1.8,0.3,2.7,0.4c0.9,0,1.8-0.2,2.7-0.4
		C-447.6,66.6-439.4,90.2-434.1,102.8"/>
	<path d="M-546.8,58.5l19.2,21.8l4.2-3.6L-542.9,55L-546.8,58.5z M-540.8,53.2l19.2,21.8l4.2-3.6l-19.5-21.8L-540.8,53.2z
		 M-534.8,47.6l19.2,21.8l4.2-3.5L-530.9,44L-534.8,47.6z"/>
	<path d="M-551.1,98.2l19.2,21.8l4.2-3.6l-19.5-21.8L-551.1,98.2z M-545.1,92.9l19.2,21.8l4.2-3.5l-19.5-21.8L-545.1,92.9z
		 M-539,87.2l19.2,21.8l4.2-3.6l-19.6-21.8L-539,87.2z"/>
	<path d="M-507.7,66l-22,19.1l3.6,4.2l22-19.4L-507.7,66z M-502.3,71.9l-22,19.1l3.6,4.2l22-19.4L-502.3,71.9z M-496.6,77.9
		l-22,19.1l3.6,4.2l22-19.4L-496.6,77.9z"/>
	<path d="M-547.6,62.2l-22,19.1l3.6,4.2l22-19.4L-547.6,62.2z M-542.2,68.2l-22,19.1l3.6,4.2l22-19.4L-542.2,68.2z M-536.5,74.2
		l-22,19.1l3.6,4.2l22-19.4L-536.5,74.2z"/>
	<path d="M-225.8,84.3c0-3.5,0.4-6.5,1.3-9c0.8-2.2,2-4.2,3.5-6c1.4-1.5,3-2.6,4.9-3.3c3.5-1.4,7.4-1.4,10.9,0
		c1.9,0.7,3.5,1.9,4.9,3.3c1.6,1.7,2.8,3.8,3.5,6c0.9,2.5,1.3,5.4,1.3,9c0,3.5-0.4,6.5-1.3,9c-0.8,2.2-2,4.2-3.5,6
		c-1.3,1.4-3,2.6-4.9,3.2c-3.5,1.2-7.3,1.2-10.9,0c-1.9-0.7-3.6-1.8-4.9-3.2c-1.6-1.7-2.8-3.8-3.5-6
		C-225.3,90.8-225.7,87.8-225.8,84.3z M-220.2,84.3c0,2.1,0.2,4.2,0.5,6.3c0.3,1.9,0.8,3.7,1.6,5.4c0.7,1.5,1.7,2.8,3,3.8
		c1.4,0.9,3,1.4,4.6,1.4s3.3-0.5,4.6-1.4c1.3-1,2.3-2.3,3-3.8c0.8-1.7,1.3-3.5,1.6-5.4c0.6-4.2,0.6-8.4,0-12.6
		c-0.3-1.9-0.8-3.7-1.6-5.4c-0.7-1.5-1.7-2.8-3-3.8c-1.4-0.9-3-1.4-4.6-1.4c-1.6,0-3.3,0.5-4.6,1.4c-1.3,1-2.3,2.3-3,3.8
		c-0.8,1.7-1.3,3.5-1.6,5.4C-220.1,80.1-220.2,82.2-220.2,84.3L-220.2,84.3z"/>
	<path d="M-170.3,72c-1.2-2-2.9-3-5-3c-2.9,0-5.1,1.1-6.4,3.3c-1.4,2.2-2,5.4-2,9.4v6.6c0,2.3,0,4.8,0.1,7.3
		c0.1,2.6,0.2,4.9,0.4,6.9c-1.9-0.2-3.8-0.2-5.6,0c0.2-2.1,0.3-4.4,0.4-6.9c0.1-2.6,0.1-5,0.1-7.3v-8.1c0-2.3,0-4.8-0.1-7.3
		c-0.1-2.6-0.2-5-0.4-7.2c0.9,0.2,1.9,0.4,2.8,0.4c0.4,0,0.7,0,1.1-0.1l1.4-0.3c-0.1,2.1-0.2,4.1-0.2,6.2h0.1c1-2,2.4-3.8,4.2-5.2
		c1.7-1.2,3.7-1.9,5.8-1.8c1.2,0,2.4,0.2,3.5,0.6c1.2,0.4,2.3,1.2,3.2,2.1c1.1,1.2,1.9,2.6,2.3,4.1c0.6,1.7,0.9,3.9,0.9,6.6
		c0,2.2,0,4.5-0.1,6.9c-0.1,2.4-0.1,4.8-0.1,7.5v5c0,0.8,0,1.6,0,2.4c0,0.8,0.1,1.6,0.1,2.3c-0.9-0.1-1.8-0.2-2.6-0.2
		c-0.9,0-1.7,0.1-2.6,0.2c0.1-2.7,0.2-5.5,0.3-8.3c0.1-2.8,0.2-5.8,0.2-8.8v-4.7C-168.5,76.9-169.1,74-170.3,72z"/>
	<path d="M-152.9,60.7c0-2.1-0.1-4.1-0.1-6.1c0-2-0.1-3.9-0.2-5.8c-0.1-1.8-0.1-3.4-0.2-4.7c1.8,0.5,3.8,0.5,5.6,0
		c-0.1,1.3-0.2,2.9-0.2,4.7c-0.1,1.8-0.1,3.8-0.2,5.8c0,2-0.1,4.1-0.1,6.1c0,2.1,0,4,0,5.7v14c0,1.8,0,3.7,0,5.7s0.1,4.1,0.1,6.1
		c0,2,0.1,3.9,0.2,5.7c0.1,1.8,0.1,3.3,0.2,4.5c-1.9-0.2-3.8-0.2-5.6,0c0.1-1.2,0.2-2.7,0.2-4.5c0.1-1.8,0.1-3.7,0.2-5.7
		c0-2,0.1-4.1,0.1-6.1s0-4,0-5.7v-14C-152.9,64.7-152.9,62.8-152.9,60.7z"/>
	<path d="M-136.8,52.2c0-1,0.3-2,0.9-2.8c0.3-0.4,0.6-0.7,1-0.9c0.4-0.2,0.8-0.3,1.3-0.3c0.4,0,0.9,0.1,1.3,0.3
		c0.4,0.2,0.7,0.5,1,0.9c0.6,0.8,0.9,1.8,0.9,2.8s-0.3,2-0.9,2.8c-0.3,0.4-0.6,0.7-1,0.9c-0.4,0.2-0.8,0.3-1.3,0.3
		c-0.4,0-0.9-0.1-1.3-0.3c-0.4-0.2-0.7-0.5-1-0.9C-136.5,54.2-136.8,53.3-136.8,52.2z M-135.9,80.2c0-2.3,0-4.8-0.1-7.3
		c-0.1-2.6-0.2-5-0.4-7.2c1.8,0.5,3.8,0.5,5.6,0c-0.2,2.2-0.3,4.6-0.4,7.2c-0.1,2.6-0.1,5-0.1,7.3v8.1c0,2.3,0,4.8,0.1,7.3
		c0.1,2.6,0.2,4.9,0.4,6.9c-1.9-0.2-3.8-0.2-5.6,0c0.2-2.1,0.3-4.4,0.4-6.9c0.1-2.6,0.1-5,0.1-7.3V80.2z"/>
	<path d="M-102,72c-1.2-2-2.9-3-5-3c-2.9,0-5.1,1.1-6.4,3.3c-1.4,2.2-2,5.4-2,9.4v6.6c0,2.3,0,4.8,0.1,7.3c0.1,2.6,0.2,4.9,0.4,6.9
		c-1.9-0.2-3.8-0.2-5.6,0c0.2-2.1,0.3-4.4,0.4-6.9c0.1-2.6,0.1-5,0.1-7.3v-8.1c0-2.3,0-4.8-0.1-7.3c-0.1-2.6-0.2-5-0.4-7.2
		c0.9,0.2,1.9,0.4,2.8,0.4c0.4,0,0.7,0,1.1-0.1l1.4-0.3c-0.1,2.1-0.2,4.1-0.2,6.2h0.1c1-2,2.4-3.8,4.2-5.2c1.7-1.2,3.7-1.9,5.8-1.8
		c1.2,0,2.4,0.2,3.5,0.6c1.2,0.4,2.3,1.2,3.2,2.1c1.1,1.2,1.9,2.6,2.3,4.1c0.6,1.7,0.9,3.9,0.9,6.6c0,2.2,0,4.5-0.1,6.9
		c-0.1,2.4-0.1,4.8-0.1,7.5v5c0,0.8,0,1.6,0,2.4c0,0.8,0.1,1.6,0.1,2.3c-0.9-0.1-1.7-0.2-2.6-0.2c-0.9,0-1.7,0.1-2.6,0.2
		c0.1-2.7,0.2-5.5,0.3-8.3c0.1-2.8,0.2-5.8,0.2-8.8v-4.7C-100.2,76.9-100.8,74-102,72z"/>
	<path d="M-88.9,85.4c0-6.4,1.2-11.3,3.7-15s6-5.4,10.7-5.4c2-0.1,4,0.4,5.7,1.3c1.6,0.8,3,2,4,3.4c1.1,1.5,1.9,3.2,2.4,5
		c0.5,2,0.8,4.1,0.8,6.1c0,0.5,0,1,0,1.5c0,0.5-0.1,1-0.1,1.5l-6.7-0.2c-2.2-0.1-4.4-0.1-6.7-0.1c-1.4,0-2.7,0-4.1,0.1l-4.1,0.2
		c-0.1,0.4-0.1,0.8-0.1,1.2v1c0,1.9,0.2,3.8,0.7,5.7c0.4,1.6,1.1,3.2,2.1,4.5c0.9,1.2,2,2.3,3.4,3c1.4,0.8,3,1.2,4.6,1.1
		c0.9,0,1.7-0.1,2.6-0.4c0.9-0.3,1.8-0.7,2.6-1.2c0.8-0.5,1.6-1.1,2.3-1.7c0.7-0.7,1.4-1.4,1.9-2.2l0.3,0.2l-0.4,3.8
		c-1.4,1.3-2.9,2.4-4.7,3.2c-1.8,0.9-3.8,1.3-5.8,1.3c-2.1,0-4.2-0.4-6.2-1.3c-1.9-0.9-3.5-2.1-4.8-3.7c-1.4-1.7-2.5-3.7-3.1-5.8
		C-88.5,90.2-88.9,87.8-88.9,85.4z M-74.4,67.4c-1.4,0-2.8,0.4-3.9,1.3c-1.1,0.9-2,2-2.6,3.3c-0.7,1.4-1.2,2.8-1.6,4.3
		c-0.3,1.5-0.6,3-0.7,4.5l4,0.2c1.4,0.1,2.8,0.1,4.1,0.1c1.4,0,2.8,0,4.2-0.1l4.1-0.2c0-1.5-0.1-3-0.3-4.4c-0.2-1.5-0.6-3-1.1-4.3
		c-0.5-1.3-1.3-2.4-2.3-3.3C-71.5,67.9-72.8,67.4-74.4,67.4z"/>
</g>
<g>
	<path class="st2" d="M177.9,67c0.1,3.3,0.4,6.6,0.4,10v3.1c0,3-0.1,5.9-0.1,8.9c0,3.3-0.1,6.5-0.1,9.7c0,1.3-0.2,2.7-0.2,4
		c1.7-0.1,3.4-0.4,5.1-0.4c1.7,0,3.4,0.3,5.1,0.4c-0.1-5.8-0.4-11.7-0.4-17.5c0-4.9-0.4-14,6.1-14c6.1,0,5.8,7.9,5.8,12.6
		c0,1.9-0.1,3.9-0.1,5.8c-0.1,3-0.1,6-0.4,9c-0.1,1.3-0.2,2.7-0.3,4c1.6-0.1,3.2-0.4,4.8-0.4c1.9,0,3.7,0.2,5.6,0.4
		c0-4.3-0.1-8.6-0.1-12.9c0-3.2,0.1-6.3,0.1-9.5c0-4,0.2-8.2-2.3-11.4c-2.5-3-5.2-4.4-8.8-4.4c-4.4,0-8,2.9-10.7,6.5l0.2-5.7
		c-1.5,0.2-3.1,0.3-4.6,0.3c-1.8,0-3.5-0.2-5.2-0.3L177.9,67z"/>
	<path class="st2" d="M235.3,54c0.8-0.5,1.5-1.1,2.3-1.6c0.8-1.2,1.3-1.5,1.3-3c0-0.9-0.3-1.8-0.8-2.5c-0.6-0.6-1.4-0.9-2.3-0.9
		c-0.8,0-1.8,0-2.4,0.6c-0.9,0.5-1.6,1.4-2.3,2.2l-9,11.6h3.9L235.3,54z M215.5,74.6c0.2-0.3,0.6-0.6,0.8-0.9
		c2.2-2.1,4.9-3.5,7.8-3.5c3.2,0,6.6,2.7,6.6,6.4c0,1.2-0.1,2.2-0.9,3c-1.6,1.1-3.4,1.6-5.2,2c-3.1,0.9-5.8,1.4-8.7,3.3
		c-2.7,1.7-4.2,5.1-4.2,8.6c0,6.7,4.3,10.2,10.1,10.2c1.9,0,3.7-0.6,5.3-1.5c1.6-1,2.9-2.4,3.7-4c1.1,3.3,3.7,5.5,7,5.5
		c1,0,2-0.2,3-0.5c1.1-0.5,2.3-0.9,3.4-1.5v-0.8c0-2-0.1-0.5-2.4-1.3c-0.9-0.5-1.6-2.2-1.7-3.3c-0.1-1.5-0.1-3-0.1-4.4
		c0-3.8,0.2-7.5,0.2-11.4c0-1.7-0.1-3.5-0.1-5.2c-0.1-7.7-7.1-10.4-13-10.4c-4.4,0-9.7,1.9-13.1,5.2l0.9,4.7L215.5,74.6z
		 M223.9,86.1c1.2-1,2.8-1.4,4.2-2c0.9-0.4,1.9-0.9,2.8-1.3c-0.1,2.5-0.1,5-0.1,7.5c0,3.9-0.9,8.2-5.2,8.2c-3,0-3.9-3-3.9-5.9
		C221.6,90,222,87.7,223.9,86.1z"/>
	<path class="st2" d="M256.4,44c-1.8,0.4-3.6,0.4-5.4,0.4c-1.8,0-3.5-0.1-5.2-0.4c0.4,8.5,0.6,17,0.6,25.3c0,3-0.1,6.1-0.1,9
		L246,97.7c0,1.6-0.1,3.3-0.2,5c1.7-0.1,3.4-0.4,5.1-0.4c1.7,0,3.4,0.3,5.1,0.4c-0.1-5.8-0.4-11.7-0.4-17.5c0-5-0.4-14,6.1-14
		c2.5,0,4.7,2.1,5.3,4.7c0.4,1.8,0.5,5.9,0.5,7.9c0,2.3,0,4.6-0.1,6.8l-0.2,7.1c-0.1,1.6-0.2,3.3-0.4,5c1.7-0.1,3.5-0.4,5.2-0.4
		c1.8,0,3.5,0.2,5.3,0.4c0-1.4-0.1-2.7-0.1-4.1V78.1c0-3.8-0.3-7.1-2.9-9.9c-2.3-2.5-5-3.7-8.3-3.7c-3.8,0-8,3.1-10.4,6.1l0.1-8.4
		L256.4,44z"/>
	<path class="st2" d="M303.3,102.7c1.5-0.2,3-0.3,4.5-0.4c1.8,0,3.5,0.3,5.3,0.4l-0.1-1.5c-0.2-3.5-0.4-7-0.4-10.4v-4
		c0-4.1,0.1-8.2,0.1-12.4c0-3,0.1-5.9,0.3-8.9c-1.7,0.2-3.4,0.3-5.1,0.3c-1.7,0-3.4-0.2-5.1-0.3c0.1,5.8,0.4,11.7,0.4,17.5
		c0,4.9,0.3,14-6.1,14c-2.5,0-4.1-1.6-5-4c-0.7-1.6-0.8-4.7-0.8-6.5c0-7,0.1-14,0.7-21c-1.6,0.2-3.2,0.3-4.8,0.3
		c-1.9,0-3.7-0.2-5.6-0.3c0,1.4,0.1,2.7,0.1,4.1c0,5.7-0.1,11.3-0.1,17c0,3.9-0.4,8.7,1.8,12c2.1,3.3,5.9,4.8,9.5,4.8
		c4.9,0,7.4-2.5,10.6-6.4L303.3,102.7z"/>
	<path class="st2" d="M319.5,74.6c0.2-0.3,0.6-0.6,0.8-0.9c2.2-2.1,4.9-3.5,7.8-3.5c3.2,0,6.6,2.7,6.6,6.5c0,1.2-0.1,2.2-0.9,3
		c-1.6,1.1-3.4,1.6-5.2,2c-3.1,0.9-5.8,1.4-8.7,3.3c-2.7,1.7-4.2,5.1-4.2,8.6c0,6.7,4.3,10.2,10.1,10.2c1.9,0,3.7-0.6,5.3-1.5
		c1.6-1,2.9-2.4,3.7-4c1.1,3.3,3.7,5.5,7,5.5c1,0,2-0.2,3-0.5c1.1-0.5,2.3-0.9,3.4-1.5v-0.8c0-2-0.1-0.5-2.4-1.3
		c-0.9-0.5-1.6-2.2-1.7-3.3c-0.1-1.5-0.1-3-0.1-4.4c0-3.8,0.2-7.5,0.2-11.4c0-1.7-0.1-3.5-0.1-5.2c-0.1-7.7-7.1-10.4-13-10.4
		c-4.4,0-9.7,1.9-13.1,5.2l0.9,4.7L319.5,74.6z M327.8,86.1c1.2-1,2.8-1.4,4.2-2c0.9-0.4,1.9-0.9,2.8-1.3c-0.1,2.5-0.1,5-0.1,7.5
		c0,3.9-0.9,8.2-5.2,8.2c-3,0-3.9-3-3.9-5.9C325.5,90,326,87.7,327.8,86.1z"/>
	<path class="st2" d="M377.7,68.2c-3.3-2.4-8.1-3.6-12.1-3.6c-11.1,0-18.6,7.9-18.6,20.1c0,5.4,1.6,10,5.1,13.9
		c3.5,3.8,8.7,4.9,13.4,4.9c2.5,0,7.6-1,9.5-3l1.7-4.6l-1.2-1.1c-1.7,2.2-4.7,3.7-7.3,3.7c-3.3,0-6.2-1.1-8.2-4.3
		c-2.1-3.3-2.3-7-2.3-11c0-5.8,1.8-14.9,8.5-14.9c4.2,0,6.7,3.5,7.2,7.8h1.7L377.7,68.2z"/>
	<path class="st2" d="M158.4,82.4c-2-6.3-4-12.4-6.3-18.4c-2.4,6-4.6,12.2-6.6,18.4H158.4z M177.1,102.8c-2.3-0.1-4.2-0.4-6.2-0.4
		c-2,0-4,0.2-6,0.4c-1.5-5.3-3.1-10.6-4.9-15.9c-3-0.1-6-0.2-9-0.2c-2.5,0-4.9,0.1-7.3,0.2c-1.9,5.2-3.5,10.5-4.8,15.9
		c-1.1-0.2-2.2-0.3-3.3-0.4c-1.1,0-2.2,0.2-3.5,0.4c3.4-8.6,14-36.1,20.1-53.8c0.9,0.2,1.8,0.3,2.7,0.4c0.9,0,1.8-0.2,2.7-0.4
		C163.5,66.6,171.7,90.2,177.1,102.8"/>
	<path class="st2" d="M64.3,58.5l19.2,21.8l4.2-3.6L68.2,55L64.3,58.5z M70.3,53.2L89.5,75l4.2-3.6L74.2,49.7L70.3,53.2z M76.4,47.6
		l19.2,21.8l4.2-3.5L80.3,44L76.4,47.6z"/>
	<path class="st2" d="M60.1,98.2L79.3,120l4.2-3.6L64,94.6L60.1,98.2z M66.1,92.9l19.2,21.8l4.2-3.5L70,89.3L66.1,92.9z M72.1,87.2
		L91.3,109l4.2-3.6L76,83.6L72.1,87.2z"/>
	<path class="st2" d="M103.5,66L81.5,85l3.6,4.2l22-19.4L103.5,66z M108.8,71.9L86.8,91l3.6,4.2l22-19.4L108.8,71.9z M114.5,77.9
		L92.6,97l3.6,4.2l22-19.4L114.5,77.9z"/>
	<path class="st2" d="M63.6,62.2l-22,19.1l3.6,4.2l22-19.4L63.6,62.2z M68.9,68.2l-22,19.1l3.6,4.2l22-19.4L68.9,68.2z M74.6,74.2
		l-22,19.1l3.6,4.2l22-19.4L74.6,74.2z"/>
	<path class="st2" d="M385.4,84.3c0-3.5,0.4-6.5,1.3-9c0.8-2.2,2-4.2,3.5-6c1.4-1.5,3-2.6,4.9-3.3c3.5-1.4,7.4-1.4,10.9,0
		c1.9,0.7,3.5,1.9,4.9,3.3c1.6,1.7,2.8,3.8,3.5,6c0.9,2.5,1.3,5.4,1.3,9c0,3.5-0.4,6.5-1.3,9c-0.8,2.2-2,4.2-3.5,6
		c-1.3,1.4-3,2.6-4.9,3.2c-3.5,1.2-7.3,1.2-10.9,0c-1.9-0.7-3.6-1.8-4.9-3.2c-1.6-1.7-2.8-3.8-3.5-6
		C385.8,90.8,385.4,87.8,385.4,84.3z M390.9,84.3c0,2.1,0.2,4.2,0.5,6.3c0.3,1.9,0.8,3.7,1.6,5.4c0.7,1.5,1.7,2.8,3,3.8
		c1.4,0.9,3,1.4,4.6,1.4s3.3-0.5,4.6-1.4c1.3-1,2.3-2.3,3-3.8c0.8-1.7,1.3-3.5,1.6-5.4c0.6-4.2,0.6-8.4,0-12.6
		c-0.3-1.9-0.8-3.7-1.6-5.4c-0.7-1.5-1.7-2.8-3-3.8c-1.4-0.9-3-1.4-4.6-1.4c-1.6,0-3.3,0.5-4.6,1.4c-1.3,1-2.3,2.3-3,3.8
		c-0.8,1.7-1.3,3.5-1.6,5.4C391,80.1,390.9,82.2,390.9,84.3L390.9,84.3z"/>
	<path class="st2" d="M440.8,72c-1.2-2-2.9-3-5-3c-2.9,0-5.1,1.1-6.4,3.3c-1.4,2.2-2,5.4-2,9.4v6.6c0,2.3,0,4.8,0.1,7.3
		c0.1,2.6,0.2,4.9,0.4,6.9c-1.9-0.2-3.8-0.2-5.6,0c0.2-2.1,0.3-4.4,0.4-6.9c0.1-2.6,0.1-5,0.1-7.3v-8.1c0-2.3,0-4.8-0.1-7.3
		c-0.1-2.6-0.2-5-0.4-7.2c0.9,0.2,1.9,0.4,2.8,0.4c0.4,0,0.7,0,1.1-0.1l1.4-0.3c-0.1,2.1-0.2,4.1-0.2,6.2h0.1c1-2,2.4-3.8,4.2-5.2
		c1.7-1.2,3.7-1.9,5.8-1.8c1.2,0,2.4,0.2,3.5,0.6c1.2,0.4,2.3,1.2,3.2,2.1c1.1,1.2,1.9,2.6,2.3,4.1c0.6,1.7,0.9,3.9,0.9,6.6
		c0,2.2,0,4.5-0.1,6.9c-0.1,2.4-0.1,4.8-0.1,7.5v5c0,0.8,0,1.6,0,2.4c0,0.8,0.1,1.6,0.1,2.3c-0.9-0.1-1.8-0.2-2.6-0.2
		c-0.9,0-1.7,0.1-2.6,0.2c0.1-2.7,0.2-5.5,0.3-8.3c0.1-2.8,0.2-5.8,0.2-8.8v-4.7C442.7,76.9,442.1,74,440.8,72z"/>
	<path class="st2" d="M458.2,60.7c0-2.1-0.1-4.1-0.1-6.1c0-2-0.1-3.9-0.2-5.8c-0.1-1.8-0.1-3.4-0.2-4.7c1.8,0.5,3.8,0.5,5.6,0
		c-0.1,1.3-0.2,2.9-0.2,4.7c-0.1,1.8-0.1,3.8-0.2,5.8c0,2-0.1,4.1-0.1,6.1c0,2.1,0,4,0,5.7v14c0,1.8,0,3.7,0,5.7s0.1,4.1,0.1,6.1
		c0,2,0.1,3.9,0.2,5.7c0.1,1.8,0.1,3.3,0.2,4.5c-1.9-0.2-3.8-0.2-5.6,0c0.1-1.2,0.2-2.7,0.2-4.5c0.1-1.8,0.1-3.7,0.2-5.7
		c0-2,0.1-4.1,0.1-6.1s0-4,0-5.7v-14C458.2,64.7,458.2,62.8,458.2,60.7z"/>
	<path class="st2" d="M474.3,52.2c0-1,0.3-2,0.9-2.8c0.3-0.4,0.6-0.7,1-0.9c0.4-0.2,0.8-0.3,1.3-0.3c0.4,0,0.9,0.1,1.3,0.3
		c0.4,0.2,0.7,0.5,1,0.9c0.6,0.8,0.9,1.8,0.9,2.8s-0.3,2-0.9,2.8c-0.3,0.4-0.6,0.7-1,0.9c-0.4,0.2-0.8,0.3-1.3,0.3
		c-0.4,0-0.9-0.1-1.3-0.3c-0.4-0.2-0.7-0.5-1-0.9C474.6,54.2,474.3,53.3,474.3,52.2z M475.2,80.2c0-2.3,0-4.8-0.1-7.3
		c-0.1-2.6-0.2-5-0.4-7.2c1.8,0.5,3.8,0.5,5.6,0c-0.2,2.2-0.3,4.6-0.4,7.2c-0.1,2.6-0.1,5-0.1,7.3v8.1c0,2.3,0,4.8,0.1,7.3
		c0.1,2.6,0.2,4.9,0.4,6.9c-1.9-0.2-3.8-0.2-5.6,0c0.2-2.1,0.3-4.4,0.4-6.9c0.1-2.6,0.1-5,0.1-7.3V80.2z"/>
	<path class="st2" d="M509.1,72c-1.2-2-2.9-3-5-3c-2.9,0-5.1,1.1-6.4,3.3c-1.4,2.2-2,5.4-2,9.4v6.6c0,2.3,0,4.8,0.1,7.3
		c0.1,2.6,0.2,4.9,0.4,6.9c-1.9-0.2-3.8-0.2-5.6,0c0.2-2.1,0.3-4.4,0.4-6.9c0.1-2.6,0.1-5,0.1-7.3v-8.1c0-2.3,0-4.8-0.1-7.3
		c-0.1-2.6-0.2-5-0.4-7.2c0.9,0.2,1.9,0.4,2.8,0.4c0.4,0,0.7,0,1.1-0.1l1.4-0.3c-0.1,2.1-0.2,4.1-0.2,6.2h0.1c1-2,2.4-3.8,4.2-5.2
		c1.7-1.2,3.7-1.9,5.8-1.8c1.2,0,2.4,0.2,3.5,0.6c1.2,0.4,2.3,1.2,3.2,2.1c1.1,1.2,1.9,2.6,2.3,4.1c0.6,1.7,0.9,3.9,0.9,6.6
		c0,2.2,0,4.5-0.1,6.9c-0.1,2.4-0.1,4.8-0.1,7.5v5c0,0.8,0,1.6,0,2.4c0,0.8,0.1,1.6,0.1,2.3c-0.9-0.1-1.7-0.2-2.6-0.2
		c-0.9,0-1.7,0.1-2.6,0.2c0.1-2.7,0.2-5.5,0.3-8.3c0.1-2.8,0.2-5.8,0.2-8.8v-4.7C510.9,76.9,510.3,74,509.1,72z"/>
	<path class="st2" d="M522.3,85.4c0-6.4,1.2-11.3,3.7-15c2.4-3.6,6-5.4,10.7-5.4c2-0.1,4,0.4,5.7,1.3c1.6,0.8,3,2,4,3.4
		c1.1,1.5,1.9,3.2,2.4,5c0.5,2,0.8,4.1,0.8,6.1c0,0.5,0,1,0,1.5c0,0.5-0.1,1-0.1,1.5l-6.7-0.2c-2.2-0.1-4.4-0.1-6.7-0.1
		c-1.4,0-2.7,0-4.1,0.1l-4.1,0.2c0,0.4-0.1,0.8-0.1,1.2v1c0,1.9,0.2,3.8,0.7,5.7c0.4,1.6,1.1,3.2,2.1,4.5c0.9,1.2,2,2.3,3.4,3
		c1.4,0.8,3,1.2,4.6,1.1c0.9,0,1.7-0.1,2.6-0.4c0.9-0.3,1.8-0.7,2.6-1.2c0.8-0.5,1.6-1.1,2.3-1.7c0.7-0.7,1.4-1.4,1.9-2.2l0.3,0.2
		l-0.4,3.8c-1.4,1.3-2.9,2.4-4.7,3.2c-1.8,0.9-3.8,1.3-5.8,1.3c-2.1,0-4.2-0.4-6.2-1.3c-1.9-0.9-3.5-2.1-4.8-3.7
		c-1.4-1.7-2.5-3.7-3.1-5.8C522.7,90.2,522.3,87.8,522.3,85.4z M536.7,67.4c-1.4,0-2.8,0.4-3.9,1.3c-1.1,0.9-2,2-2.6,3.3
		c-0.7,1.4-1.2,2.8-1.6,4.3c-0.3,1.5-0.6,3-0.7,4.5l4,0.2c1.4,0.1,2.8,0.1,4.1,0.1c1.4,0,2.8,0,4.2-0.1l4.1-0.2c0-1.5-0.1-3-0.3-4.4
		c-0.2-1.5-0.6-3-1.1-4.3c-0.5-1.3-1.3-2.4-2.3-3.3C539.7,67.9,538.3,67.4,536.7,67.4z"/>
</g>
</svg>
